# xmcd CD database file
#
# Track frame offsets:
#	150
#	8935
#	18700
#	29017
#	38890
#	49597
#	57895
#	68317
#	78085
#	87700
#	100217
#	108705
#	118275
#	128185
#	139272
#	147970
#	156997
#	166377
#	175452
#	184495
#	194362
#	206080
#	215735
#	224797
#	236862
#	245645
#	255927
#	263480
#	274762
#	285625
#
# Disc length: 3955 seconds
#
# Revision: 2
# Processed by: cddbd v1.5.2PL0 Copyright (c) Steve Scherf et al.
# Submitted via: CDex 1.70beta2
#
DISCID=d80f711e
DTITLE=Fats Domino - The Imperial Singles Volume 3 - 1956 - 1958 - (Original Sound Recordings)
DYEAR=1998
DGENRE=R and B
TTITLE0=I'm In Love Again - (1956)
TTITLE1=My Blue Heaven - (1956)
TTITLE2=When My Dreamboat Comes Home - (1956)
TTITLE3=So Long - (1956)
TTITLE4=Blueberry Hill - (1956)
TTITLE5=Honey Chile - (1956)
TTITLE6=Blue Monday - (1956)
TTITLE7=What's The Reason I'm Not Pleasing You - (1956)
TTITLE8=I'm Walkin' - (1957)
TTITLE9=I'm In The Mood For Love - (1957)
TTITLE10=Valley Of Tears - (1957)
TTITLE11=It's You I Love - (1957)
TTITLE12=When I See You - (1957)
TTITLE13=What Will I Tell My Heart? - (1957)
TTITLE14=Wait And See - (1957)
TTITLE15=I Still Love You - (1957)
TTITLE16=The Big Beat - (1957)
TTITLE17=I Want You To Know - (1957)
TTITLE18=Yes My Darling - (1958)
TTITLE19=Don't You Know I Love You - (1958)
TTITLE20=Sick And Tired - (1958)
TTITLE21=No, No - (1958)
TTITLE22=Little Mary - (1958)
TTITLE23=The Prisoner's Song - (1958)
TTITLE24=Young School Girl - (1958)
TTITLE25=It Must Be Love - (1958)
TTITLE26=Whole Lotta Loving - (1958)
TTITLE27=Coquette - (1958)
TTITLE28=Telling Lies - (1959)
TTITLE29=When The Saints Go Marching In - (1959)
EXTD=Volume 3 In The Imperial singles sets 56-58\nAll The A&B sides 30 tracks in all what an album, \nBrilliant. for some reason London American switched\nthe B side of Blueberry Hill in the UK from Honey Chile to\nRosalie (Can'tGo On). YEAR: 1998
EXTT0=
EXTT1=
EXTT2=
EXTT3=
EXTT4=
EXTT5=
EXTT6=
EXTT7=
EXTT8=
EXTT9=
EXTT10=
EXTT11=
EXTT12=
EXTT13=
EXTT14=
EXTT15=
EXTT16=
EXTT17=
EXTT18=
EXTT19=
EXTT20=
EXTT21=
EXTT22=
EXTT23=
EXTT24=
EXTT25=
EXTT26=
EXTT27=
EXTT28=
EXTT29=
PLAYORDER=
